PathFileType	4	(X/Y/Z)	RBDS016\RBDS016runT35.trc
DataRate	CameraRate	NumFrames	NumMarkers	Units	OrigDataRate	OrigDataStartFrame	OrigNumFrames
150.000000	150.000000	4	33	mm	150.000000	1687	4500
Frame#	Time	L.ASIS			L.Heel.Bottom			L.Heel.Lateral			L.Heel.Top			L.Iliac.Crest			L.MT1			L.MT5			L.PSIS			L.Shank.Bottom.Lateral			L.Shank.Bottom.Medial			L.Shank.Top.Lateral			L.Shank.Top.Medial			L.Thigh.Bottom.Lateral			L.Thigh.Bottom.Medial			L.Thigh.Top.Lateral			L.Thigh.Top.Medial			R.ASIS			R.ASY			R.Heel.Bottom			R.Heel.Lateral			R.Heel.Top			R.Iliac.Crest			R.MT1			R.MT5			R.PSIS			R.Shank.Bottom.Lateral			R.Shank.Bottom.Medial			R.Shank.Top.Lateral			R.Shank.Top.Medial			R.Thigh.Bottom.Lateral			R.Thigh.Bottom.Medial			R.Thigh.Top.Lateral			R.Thigh.Top.Medial			
		X1	Y1	Z1	X2	Y2	Z2	X3	Y3	Z3	X4	Y4	Z4	X5	Y5	Z5	X6	Y6	Z6	X7	Y7	Z7	X8	Y8	Z8	X9	Y9	Z9	X10	Y10	Z10	X11	Y11	Z11	X12	Y12	Z12	X13	Y13	Z13	X14	Y14	Z14	X15	Y15	Z15	X16	Y16	Z16	X17	Y17	Z17	X18	Y18	Z18	X19	Y19	Z19	X20	Y20	Z20	X21	Y21	Z21	X22	Y22	Z22	X23	Y23	Z23	X24	Y24	Z24	X25	Y25	Z25	X26	Y26	Z26	X27	Y27	Z27	X28	Y28	Z28	X29	Y29	Z29	X30	Y30	Z30	X31	Y31	Z31	X32	Y32	Z32	X33	Y33	Z33	

1688	11.24666666666667	2448.581629245165	847.5933422956621	959.3926270554905	2020.246304906436	448.5590556330226	1004.881514915625	2041.776778838942	432.6320243604321	958.8468589509703	2067.508040209824	440.3768011097039	1004.657935215875	2376.911808266911	919.3805425217195	904.3409176296707	2053.447413052726	228.7290409133714	1000.641804891994	2041.993523423108	281.4354232023987	906.5250771844438	2258.019169420615	894.8247505119386	1014.132052599003	2163.34283494226	413.8299381521865	940.9153067920921	2164.421385947801	430.6610837486635	993.9757825324992	2241.694856612292	430.9334629370789	935.042060459181	2243.991332726704	446.1110750864576	986.3912898620264	2434.508316875038	488.669565928023	902.2012342948265	2377.471784423032	477.0810967131318	946.0195662492765	2402.442106920711	592.5982142519651	887.4883110068891	2347.887774789767	581.0775406271994	929.5794736200613	2438.828608587213	877.5246774107999	1194.974501377622	2374.796774818214	74.67373431607203	1115.152000517841	2192.221831761536	33.64455973852611	1074.399286939347	2213.283334466881	56.83935925955578	1118.775095873228	2209.229351492072	83.0547091643797	1072.53533942132	2349.618386910771	928.8816643175431	1233.436672055027	2410.227922595254	46.13223724645857	1082.731495601089	2355.968429153116	36.07150979664114	1182.669601800075	2252.91402019571	902.4916909826303	1110.694453818972	2294.224682351658	147.8074793942345	1150.571935397782	2263.363601139208	172.8197141547336	1117.701778990832	2324.79958616219	223.2346047239642	1175.84186070646	2291.581977492597	245.3890058251813	1140.024914925835	2402.201261425809	519.27435895306	1224.869923027025	2349.977859364182	510.1810889030943	1175.146814674539	2363.111218017974	620.4479958316336	1245.869156486425	2314.076873038676	611.3433108802452	1199.261491110881	
1689	11.25333333333333	2447.587411868269	851.0160667013411	958.9156702641649	2031.554181197881	435.7535716973138	1002.233003749316	2054.183555844791	420.1340113025125	956.6629226011629	2079.224677942707	430.1024897678712	1002.101019835164	2374.315003381289	922.7843040415172	904.7216503351162	2075.869845768592	218.0227827457537	1002.037645141762	2062.427460927016	268.4308221956036	906.8944012365358	2257.427477826188	897.4811697481633	1016.100842837705	2177.180824849004	407.1046628276926	940.0277538410288	2177.142704857298	424.4216215680173	992.9197086599622	2254.701510334127	427.4479992563384	934.4847736860066	2255.989409889228	443.1524455055385	985.6862036741924	2445.684025073837	493.893896192485	902.3488421005841	2388.903789674569	479.6843702460308	945.7046668418506	2409.258314733694	596.4326275868672	887.6359203250892	2354.819019594716	582.3418382856419	929.0274531366341	2438.888171899684	877.7217194432347	1195.145365373436	2351.182858426883	74.69802407541501	1115.961580511072	2168.425816017248	34.85068584570655	1074.646119607059	2189.532957697894	57.82497583482094	1119.200136093762	2185.379137421142	84.33904459858836	1073.144642412434	2349.692590566747	930.2823312461938	1234.330312994926	2386.305097759372	46.50684728994067	1083.146260166208	2332.078083680542	35.86254533066607	1182.829911432298	2252.888770779771	905.0663406949342	1112.593124932619	2272.163854892492	149.014821136968	1150.852418133803	2241.808371512872	174.5574196468133	1118.024600386837	2304.391430682405	223.8342211036803	1175.967778370344	2271.560010419802	246.5615211454638	1140.166327190137	2389.685299153303	518.7137248913814	1224.508203536325	2337.126817903786	511.8112355547358	1174.876107950618	2354.891283121937	621.4694519843354	1245.336199599511	2305.513726587471	614.4474739523179	1198.703375296672	
1690	11.26	2446.889638850348	855.2452234437145	958.3643330908351	2042.83543892642	421.341192257629	1000.065287933051	2066.529465029011	406.3188249365064	954.8779843142923	2090.765642689942	418.509747828295	999.8951153285407	2372.056099025763	926.6876034471323	904.9516486270533	2099.196264112577	206.6491132047478	1003.431217756791	2083.476256489207	254.755697438042	907.4089263394809	2257.196288170079	900.6899132317736	1018.080280550804	2190.692137144807	399.7612009805773	939.3041504153168	2189.421551652104	417.535718822141	991.9980174462918	2267.088663504494	423.77376022205	933.9878131516733	2267.25675668172	439.9834212174905	985.0275094770183	2456.258339531701	500.1158851515075	902.440223792465	2399.804876282888	483.4148796302239	945.3607709502287	2415.762054508842	601.1820675597696	887.7614835151879	2361.487160480231	584.6301172967137	928.4383296330682	2439.252759742128	878.5011516324905	1195.072058672918	2327.737578603001	74.76181264148369	1116.691153672891	2144.604661036647	36.60654144090151	1074.868966432716	2165.832292168904	59.25231020916753	1119.611822582543	2161.634028041244	86.13890583665808	1073.76546638699	2350.270265164056	932.2706175277204	1235.338139913237	2362.434712493929	46.72869620619756	1083.403246153469	2308.206479633194	35.61924322979213	1182.86377705187	2253.228958116821	908.1611585407406	1114.554328605486	2249.967476929775	150.66073393292	1151.071470635846	2220.015009805354	176.6130543468446	1118.304234203867	2283.614443727276	224.9361204382999	1176.022352215687	2251.025452732825	248.1378909334244	1140.299352752743	2376.739616022177	519.0083901685211	1224.073795826828	2323.765444588251	514.3870664359447	1174.750600028692	2346.580440637154	623.2593379455959	1244.790405167496	2296.777033213295	618.4153237405764	1198.319781983088	
1691	11.26666666666667	2446.50350462673	860.103828447643	957.821720113779	2054.283140596353	405.3830456714821	998.4530459170218	2078.985135636386	391.2630791761455	953.5585702289912	2102.287011371046	405.6200627495908	998.1543997916563	2370.215567799352	930.9354284485407	905.0389741029192	2123.463510091729	194.7836395368574	1004.76075705237	2105.21739782407	240.5982850273728	908.0265582255427	2257.317554829182	904.412792252402	1019.945535501286	2203.949224782781	391.790703565386	938.7856801527777	2201.35147823286	409.9758464931606	991.25665470985	2278.889136013066	419.8331440099269	933.5798954776776	2277.838949230439	436.5094623255347	984.4475513637678	2466.15467273905	507.1756336358442	902.4677767123982	2410.082827172636	488.1673183209925	945.0013240716452	2421.93397430378	606.730000035134	887.8393342734108	2367.866217499985	587.8744567942218	927.814443901422	2439.88635611379	879.7921180862664	1194.811184455238	2304.519398068092	74.91364426621344	1117.350773321972	2120.84402939074	39.10224896439328	1075.08410639544	2142.272081383873	61.27789710538959	1120.030429321076	2138.115076438296	88.6174315054518	1074.424899834459	2351.349444043967	934.7803716179978	1236.399251873621	2338.644989630957	46.81050651480957	1083.526024014767	2284.382115671883	35.41248324687348	1182.796251260279	2253.92270793917	911.7265718231575	1116.448755141475	2227.750076680151	152.8920737586415	1151.264833096518	2198.109072076131	179.1472028849895	1118.56283556892	2262.618778089367	226.6943619393945	1176.026390109796	2230.141026772805	250.2836432568541	1140.433539726168	2363.552159618167	520.2144796291506	1223.564285206658	2310.122628255139	517.9514575878509	1174.724913174232	2338.283432579865	625.8109349823425	1244.223097910563	2288.010248026671	623.2227940451927	1198.072424673731	
